<svg width="20" height="18" viewBox="0 0 20 18" fill="none" xmlns="http://www.w3.org/2000/svg">
<path d="M17.03 10.0383H0.869498C0.638893 10.0383 0.417733 9.94516 0.25467 9.77928C0.0916077 9.61341 0 9.38843 0 9.15385C0 8.91926 0.0916077 8.69428 0.25467 8.52841C0.417733 8.36253 0.638893 8.26934 0.869498 8.26934H17.03L10.6879 1.81954C10.5246 1.65346 10.4329 1.42819 10.4329 1.19331C10.4329 0.958431 10.5246 0.73317 10.6879 0.567083C10.8511 0.400997 11.0726 0.307692 11.3035 0.307692C11.5344 0.307692 11.7558 0.400997 11.9191 0.567083L19.7446 8.52762C19.8255 8.60978 19.8898 8.70739 19.9336 8.81485C19.9774 8.9223 20 9.0375 20 9.15385C20 9.27019 19.9774 9.38539 19.9336 9.49285C19.8898 9.60031 19.8255 9.69791 19.7446 9.78008L11.9191 17.7406C11.7558 17.9067 11.5344 18 11.3035 18C11.0726 18 10.8511 17.9067 10.6879 17.7406C10.5246 17.5745 10.4329 17.3493 10.4329 17.1144C10.4329 16.8795 10.5246 16.6542 10.6879 16.4882L17.03 10.0383Z" fill="white"/>
</svg>
