<svg width="28" height="28" viewBox="0 0 28 28" fill="none" xmlns="http://www.w3.org/2000/svg">
<path d="M27.1768 25.2986L27.3538 25.1215L27.1765 24.9448L20.2588 18.0495C21.8565 15.9028 22.6047 13.2374 22.3539 10.5675C22.0962 7.82416 20.803 5.28216 18.7378 3.45916C16.6725 1.63615 13.9904 0.669224 11.2376 0.755289C8.48473 0.841355 5.86819 1.97394 3.92073 3.9224C1.97327 5.87085 0.841304 8.48866 0.755286 11.2428C0.669268 13.9969 1.63566 16.6803 3.45773 18.7466C5.2798 20.8129 7.82054 22.1067 10.5626 22.3646C13.2344 22.6159 15.9016 21.8652 18.0485 20.2628L24.9458 27.1766L25.1226 27.3538L25.2996 27.1767L27.1768 25.2986ZM14.5256 18.6789C13.5936 19.0651 12.5947 19.2639 11.5859 19.2639C9.54865 19.2639 7.59477 18.4542 6.15415 17.0128C4.71353 15.5715 3.90417 13.6165 3.90417 11.5781C3.90417 9.53966 4.71353 7.58473 6.15415 6.14337C7.59477 4.70202 9.54865 3.8923 11.5859 3.8923C12.5947 3.8923 13.5936 4.09109 14.5256 4.47733C15.4576 4.86356 16.3044 5.42968 17.0177 6.14337C17.731 6.85706 18.2969 7.70433 18.6829 8.63683C19.069 9.56932 19.2677 10.5688 19.2677 11.5781C19.2677 12.5874 19.069 13.5869 18.6829 14.5194C18.2969 15.4519 17.731 16.2991 17.0177 17.0128C16.3044 17.7265 15.4576 18.2926 14.5256 18.6789Z" fill="white" stroke="white" stroke-width="0.5"/>
</svg>
