<svg width="26" height="26" viewBox="0 0 26 26" fill="none" xmlns="http://www.w3.org/2000/svg">
<path d="M22.0665 4.27855C20.9297 3.136 19.5756 2.2301 18.0833 1.61369C16.5909 0.997282 14.9901 0.682705 13.3743 0.688306C6.60411 0.688306 1.08626 6.17855 1.08626 12.9149C1.08626 15.074 1.65664 17.1714 2.72301 19.022L0.987061 25.3636L7.49688 23.661C9.29483 24.6356 11.316 25.1538 13.3743 25.1538C20.1445 25.1538 25.6624 19.6636 25.6624 12.9272C25.6624 9.65776 24.3852 6.58569 22.0665 4.27855ZM13.3743 23.0811C11.5392 23.0811 9.74122 22.5876 8.16646 21.6623L7.79447 21.4402L3.92578 22.4519L4.95495 18.7012L4.70696 18.3188C3.68739 16.6988 3.14602 14.8263 3.1446 12.9149C3.1446 7.31361 7.73248 2.74869 13.3619 2.74869C16.0898 2.74869 18.6566 3.80973 20.5785 5.7344C21.5302 6.67694 22.2843 7.79806 22.7973 9.03277C23.3103 10.2675 23.5718 11.5912 23.5668 12.9272C23.5916 18.5285 19.0038 23.0811 13.3743 23.0811ZM18.979 15.4811C18.669 15.3331 17.1562 14.5928 16.8834 14.4818C16.5982 14.3831 16.3998 14.3337 16.189 14.6298C15.9783 14.9383 15.3955 15.6292 15.2219 15.8266C15.0483 16.0363 14.8623 16.061 14.5523 15.9006C14.2423 15.7525 13.2503 15.4194 12.0848 14.3831C11.1672 13.5688 10.5596 12.5694 10.3736 12.261C10.2 11.9526 10.3488 11.7922 10.51 11.6318C10.6464 11.4961 10.82 11.274 10.9688 11.1013C11.1176 10.9285 11.1796 10.7928 11.2788 10.5954C11.378 10.3857 11.3284 10.213 11.254 10.0649C11.1796 9.91685 10.5596 8.41166 10.3116 7.79478C10.0636 7.20257 9.80322 7.2766 9.61722 7.26426H9.02204C8.81125 7.26426 8.48885 7.33829 8.20366 7.64673C7.93087 7.95517 7.13729 8.69543 7.13729 10.2006C7.13729 11.7058 8.24086 13.1616 8.38966 13.359C8.53845 13.5688 10.5596 16.6532 13.6347 17.9733C14.3663 18.2941 14.9367 18.4792 15.3831 18.6149C16.1146 18.8493 16.7842 18.8123 17.3174 18.7383C17.9126 18.6519 19.1402 17.998 19.3882 17.2824C19.6485 16.5668 19.6486 15.9623 19.5618 15.8266C19.475 15.6909 19.289 15.6292 18.979 15.4811Z" fill="white"/>
</svg>
