<svg width="20" height="18" viewBox="0 0 20 18" fill="none" xmlns="http://www.w3.org/2000/svg">
<path d="M17.03 9.73073H0.869498C0.638893 9.73073 0.417733 9.63754 0.25467 9.47167C0.0916077 9.30579 0 9.08081 0 8.84623C0 8.61164 0.0916077 8.38667 0.25467 8.22079C0.417733 8.05491 0.638893 7.96173 0.869498 7.96173H17.03L10.6879 1.51192C10.5246 1.34584 10.4329 1.12058 10.4329 0.885695C10.4329 0.650814 10.5246 0.425552 10.6879 0.259466C10.8511 0.09338 11.0726 7.43866e-05 11.3035 7.43866e-05C11.5344 7.43866e-05 11.7558 0.09338 11.9191 0.259466L19.7446 8.22C19.8255 8.30216 19.8898 8.39977 19.9336 8.50723C19.9774 8.61469 20 8.72989 20 8.84623C20 8.96257 19.9774 9.07777 19.9336 9.18523C19.8898 9.29269 19.8255 9.3903 19.7446 9.47246L11.9191 17.433C11.7558 17.5991 11.5344 17.6924 11.3035 17.6924C11.0726 17.6924 10.8511 17.5991 10.6879 17.433C10.5246 17.2669 10.4329 17.0416 10.4329 16.8068C10.4329 16.5719 10.5246 16.3466 10.6879 16.1805L17.03 9.73073Z" fill="#333333"/>
</svg>
