<svg width="16" height="21" viewBox="0 0 16 21" fill="none" xmlns="http://www.w3.org/2000/svg">
<path d="M7.65005 1C6.89418 1 6.16927 1.30027 5.63479 1.83475C5.10032 2.36922 4.80005 3.09413 4.80005 3.85V10.5C4.80005 11.2559 5.10032 11.9808 5.63479 12.5153C6.16927 13.0497 6.89418 13.35 7.65005 13.35C8.40592 13.35 9.13082 13.0497 9.6653 12.5153C10.1998 11.9808 10.5 11.2559 10.5 10.5V3.85C10.5 3.09413 10.1998 2.36922 9.6653 1.83475C9.13082 1.30027 8.40592 1 7.65005 1Z" stroke="white" stroke-width="2" stroke-linecap="round" stroke-linejoin="round"/>
<path d="M14.3 8.6001V10.5001C14.3 12.2638 13.5994 13.9552 12.3523 15.2024C11.1051 16.4495 9.41369 17.1501 7.65 17.1501M7.65 17.1501C5.88631 17.1501 4.19486 16.4495 2.94774 15.2024C1.70062 13.9552 1 12.2638 1 10.5001V8.6001M7.65 17.1501V20.0001" stroke="white" stroke-width="2" stroke-linecap="round" stroke-linejoin="round"/>
</svg>
