<svg width="22" height="22" viewBox="0 0 22 22" fill="none" xmlns="http://www.w3.org/2000/svg">
<path d="M21.1768 19.732L21.3538 19.5549L21.1765 19.3782L15.8905 14.1093C17.1075 12.4535 17.6762 10.4056 17.4835 8.35425C17.2839 6.22935 16.2823 4.26043 14.6826 2.84841C13.083 1.43638 11.0055 0.687434 8.87325 0.754097C6.741 0.82076 4.71434 1.69802 3.20591 3.20721C1.69749 4.7164 0.82072 6.74404 0.754095 8.87727C0.687469 11.0105 1.43599 13.0889 2.84729 14.6894C4.25859 16.2899 6.22655 17.292 8.35048 17.4918C10.4033 17.6848 12.4526 17.1142 14.1086 15.8936L19.379 21.1766L19.5558 21.3538L19.7328 21.1767L21.1768 19.732ZM11.3822 14.5458C10.6723 14.84 9.91142 14.9915 9.14303 14.9915C7.59119 14.9915 6.10289 14.3747 5.00554 13.2768C3.90818 12.1789 3.29167 10.6897 3.29167 9.137C3.29167 7.58426 3.90818 6.09514 5.00554 4.99722C6.10289 3.89931 7.59119 3.28254 9.14303 3.28254C9.91142 3.28254 10.6723 3.43396 11.3822 3.72816C12.0921 4.02237 12.7372 4.45359 13.2805 4.99722C13.8239 5.54085 14.2549 6.18625 14.549 6.89655C14.843 7.60686 14.9944 8.36816 14.9944 9.137C14.9944 9.90583 14.843 10.6671 14.549 11.3774C14.2549 12.0877 13.8239 12.7331 13.2805 13.2768C12.7372 13.8204 12.0921 14.2516 11.3822 14.5458Z" fill="#42B073" stroke="#42B073" stroke-width="0.5"/>
</svg>
